<?xml version="1.0" encoding="UTF-8" standalone="no"?>
<svg
   xmlns:dc="http://purl.org/dc/elements/1.1/"
   xmlns:cc="http://creativecommons.org/ns#"
   xmlns:rdf="http://www.w3.org/1999/02/22-rdf-syntax-ns#"
   xmlns:svg="http://www.w3.org/2000/svg"
   xmlns="http://www.w3.org/2000/svg"
   xmlns:sodipodi="http://sodipodi.sourceforge.net/DTD/sodipodi-0.dtd"
   xmlns:inkscape="http://www.inkscape.org/namespaces/inkscape"
   width="179.91667mm"
   height="179.91667mm"
   viewBox="0 0 179.91667 179.91667"
   version="1.1"
   id="svg8"
   inkscape:version="1.0.2 (e86c870879, 2021-01-15, custom)"
   sodipodi:docname="3.svg">
  <defs
     id="defs2">
    <rect
       x="24.346141"
       y="370.28843"
       width="109.31324"
       height="113.58955"
       id="rect1999" />
  </defs>
  <sodipodi:namedview
     id="base"
     pagecolor="#ffffff"
     bordercolor="#666666"
     borderopacity="1.0"
     inkscape:pageopacity="0.0"
     inkscape:pageshadow="2"
     inkscape:zoom="0.98994949"
     inkscape:cx="572.68465"
     inkscape:cy="343.08272"
     inkscape:document-units="mm"
     inkscape:current-layer="layer1"
     inkscape:document-rotation="0"
     showgrid="false"
     fit-margin-top="0"
     fit-margin-left="0"
     fit-margin-right="0"
     fit-margin-bottom="0"
     inkscape:window-width="1920"
     inkscape:window-height="1017"
     inkscape:window-x="1912"
     inkscape:window-y="-8"
     inkscape:window-maximized="1" />
  <metadata
     id="metadata5">
    <rdf:RDF>
      <cc:Work
         rdf:about="">
        <dc:format>image/svg+xml</dc:format>
        <dc:type
           rdf:resource="http://purl.org/dc/dcmitype/StillImage" />
        <dc:title />
      </cc:Work>
    </rdf:RDF>
  </metadata>
  <g
     inkscape:label="Layer 1"
     inkscape:groupmode="layer"
     id="layer1"
     transform="translate(13.873402,-330.46527)">
    <path
       style="fill:#d4001c;stroke-width:0.265;stroke:#000000;stroke-opacity:1;stroke-miterlimit:4;stroke-dasharray:none;stroke-linejoin:round;stroke-linecap:round;fill-opacity:1"
       d="m 47.413323,481.25857 c -0.383427,-0.3016 -0.697141,-0.739 -0.697141,-0.97199 0,-0.23299 1.444483,-3.64739 3.20996,-7.58756 1.765477,-3.94018 4.304019,-9.60474 5.641202,-12.58791 1.337183,-2.98318 5.156923,-11.52029 8.48831,-18.97135 3.33139,-7.45107 6.100445,-13.50402 6.153457,-13.451 0.05302,0.053 -3.257545,8.76871 -7.356795,19.36822 -4.099251,10.59951 -8.705964,22.54605 -10.23714,26.54788 -3.203471,8.37247 -3.581323,8.92842 -5.201853,7.65371 z m 50.737781,0.34588 c -0.532119,-0.35531 -0.201456,0.47766 -9.897666,-24.93293 -1.138325,-2.98317 -4.056711,-10.60317 -6.485305,-16.93333 -6.167393,-16.07539 -6.189919,-16.32114 -0.266772,-2.91042 2.281677,5.16599 4.967608,11.23818 5.968739,13.49375 1.00113,2.25558 4.277712,9.63745 7.281291,16.40417 3.003582,6.76672 5.527349,12.76773 5.608369,13.33558 0.11561,0.8102 0.0423,1.10923 -0.34037,1.38907 -0.531838,0.38889 -1.408382,0.46119 -1.868286,0.15411 z M 72.966517,465.07408 c -0.217348,-0.26189 -0.157904,-5.46676 0.225832,-19.77368 0.286454,-10.68003 0.578223,-19.47563 0.648372,-19.54578 0.07015,-0.0702 0.127524,0.9341 0.127498,2.23166 -2.9e-5,1.29756 0.184647,9.08623 0.410387,17.30816 0.225742,8.22193 0.374592,16.08005 0.330779,17.4625 -0.07868,2.48267 -0.08806,2.51452 -0.763767,2.59306 -0.376256,0.0437 -0.816853,-0.0804 -0.979101,-0.27592 z M 40.475408,452.04324 c -0.248476,-0.37922 -0.367951,-0.91337 -0.28111,-1.25677 0.08307,-0.32848 2.626273,-2.87824 5.651564,-5.66613 3.025291,-2.78789 9.368981,-8.64287 14.097088,-13.01108 4.728109,-4.3682 8.642802,-7.89595 8.69932,-7.83943 0.05652,0.0565 -1.972088,2.33963 -4.508013,5.07358 -2.535926,2.73395 -8.351886,9.01895 -12.924354,13.96665 -4.572468,4.94771 -8.436377,9.08331 -8.586462,9.19022 -0.609542,0.4342 -1.718702,0.19821 -2.148033,-0.45704 z m 52.776465,-12.10661 c -14.90434,-16.1318 -14.709596,-15.91774 -14.361941,-15.78655 0.575249,0.21708 28.094098,25.78766 28.377908,26.36883 0.34719,0.71094 0.0194,1.76825 -0.6249,2.01549 -1.27399,0.48887 -1.47415,0.30058 -13.391067,-12.59777 z M 79.432187,450.1011 c -0.318301,-0.35172 -0.983982,-3.81704 -2.422257,-12.60946 -1.914391,-11.703 -2.111518,-13.05131 -1.873277,-12.81265 0.240356,0.24077 7.033697,23.85213 7.033697,24.44675 0,1.24437 -1.886556,1.91637 -2.738163,0.97536 z m -23.039814,-3.89952 c -1.057925,-1.05792 -0.726059,-1.65837 6.35085,-11.49047 6.883506,-9.56341 7.520877,-10.39979 7.520877,-9.8691 0,0.37085 -11.041706,20.67503 -11.589944,21.31232 -0.495191,0.57563 -1.72788,0.60115 -2.281783,0.0472 z m 42.670541,-9.17537 c -0.599559,-0.48781 -2.944882,-3.65098 -2.808288,-3.78757 0.25862,-0.25863 4.497724,0.82866 4.979034,1.27707 1.44752,1.34857 -0.63651,3.75878 -2.170746,2.5105 z m 22.927226,-7.51874 c -6.20431,-1.39042 -24.025721,-5.29024 -33.92671,-7.42412 -3.816567,-0.82256 -6.894991,-1.53978 -6.840945,-1.59382 0.227508,-0.22751 47.422285,7.15851 47.977555,7.50852 0.70843,0.44656 0.80529,1.70278 0.17954,2.32853 -0.60109,0.60109 -1.49368,0.50215 -7.38944,-0.81911 z m -39.904261,-4.35215 c -2.01099,-1.61215 -3.604893,-2.98263 -3.542006,-3.04551 0.213145,-0.21315 8.482425,3.99916 8.766043,4.46536 0.379846,0.62437 -0.09979,1.36996 -0.932919,1.4502 -0.461647,0.0445 -1.631989,-0.7383 -4.291118,-2.87005 z m -38.743134,1.58187 c -0.181901,-0.1837 -0.330729,-0.60082 -0.330729,-0.92693 0,-0.32611 0.148828,-0.68925 0.330729,-0.80698 0.363611,-0.23533 23.28204,-4.532 23.459723,-4.39814 0.06063,0.0457 0.06063,0.13216 0,0.19218 -0.101608,0.10059 -21.403786,5.90862 -22.599827,6.16184 -0.291042,0.0616 -0.677995,-0.0383 -0.859896,-0.22197 z M 21.157353,420.4857 c -0.160116,-0.10691 -0.428554,-0.45547 -0.59653,-0.77458 -0.394364,-0.74918 0.08308,-1.88735 0.875107,-2.08613 0.307006,-0.0771 9.305621,0.16392 19.99692,0.53551 10.691302,0.37158 20.540015,0.6756 21.886032,0.6756 1.455145,0 2.447301,0.10727 2.447301,0.26459 0,0.15815 -1.037717,0.26544 -2.579688,0.26673 -1.418828,0.001 -11.033125,0.29808 -21.365104,0.65978 -21.165765,0.74095 -20.270762,0.7211 -20.664038,0.4585 z m 76.821851,-0.80637 c -8.403828,-0.2209 -15.279688,-0.47631 -15.279688,-0.56758 0,-0.28022 36.826324,-1.12599 37.100254,-0.85206 0.13605,0.13605 0.20829,0.58929 0.16054,1.0072 l -0.0868,0.75984 -3.3073,0.0271 c -1.81901,0.0149 -10.18315,-0.15362 -18.586976,-0.37452 z m -34.858855,-2.19846 c -1.964531,-0.27902 -8.384302,-1.14448 -14.266159,-1.92325 -9.008896,-1.19279 -10.749767,-1.49181 -11.046354,-1.89742 -0.78332,-1.07125 -0.07338,-2.49701 1.243354,-2.49701 0.510511,0 27.799147,6.4087 28.699368,6.74001 0.612873,0.22556 -1.29158,0.0519 -4.630209,-0.42233 z m 16.536459,0.16154 c 1.385306,-0.49 30.060482,-8.33131 30.467082,-8.33131 1.22685,0 1.88512,1.87708 0.95219,2.71521 -0.31616,0.28403 -5.27481,1.26211 -15.633867,3.08372 -13.258491,2.33146 -16.84322,2.90654 -15.785405,2.53238 z m 1.212673,-1.56159 c 0.06063,-0.0602 7.364024,-3.45492 16.229751,-7.54383 11.604658,-5.35211 16.273058,-7.38565 16.667738,-7.26038 1.18116,0.37488 1.58716,1.79188 0.7345,2.56352 -0.42611,0.38562 -32.869949,12.35014 -33.489524,12.35014 -0.138989,0 -0.203097,-0.0492 -0.142465,-0.10945 z m -23.276857,-6.07574 c -5.877904,-3.22555 -10.852177,-6.11326 -11.05394,-6.41713 -0.283816,-0.42745 -0.301498,-0.72436 -0.07812,-1.31189 0.640493,-1.68462 1.515737,-1.56048 4.52814,0.64228 1.360895,0.99513 5.74857,4.16253 9.750393,7.03867 4.001823,2.87615 7.387167,5.33419 7.522986,5.46232 0.897813,0.84696 -1.194306,-0.21469 -10.669461,-5.41425 z m 22.710003,4.48424 c 0.172556,-0.20791 2.240963,-1.83675 4.596458,-3.61964 2.355498,-1.78289 5.711473,-4.33343 7.457723,-5.66787 1.74625,-1.33443 3.353594,-2.48747 3.571875,-2.56231 0.628539,-0.21548 1.322917,0.28388 1.322917,0.95137 0,0.33612 -0.208359,0.78813 -0.463021,1.00445 -0.604956,0.51387 -16.39915,10.27203 -16.625935,10.27203 -0.09556,0 -0.03257,-0.17011 0.139983,-0.37803 z m -31.734361,-5.42765 c -7.203282,-2.87488 -18.276094,-7.27953 -24.606251,-9.7881 -6.330156,-2.50856 -11.658203,-4.68421 -11.840104,-4.83477 -0.575557,-0.47638 -0.400132,-1.50436 0.286112,-1.6766 0.449168,-0.11273 7.227737,2.73432 24.93698,10.47372 13.376077,5.8457 24.498732,10.73151 24.717013,10.85736 1.486625,0.8571 -1.947992,-0.42361 -13.49375,-5.03161 z m 31.261802,3.75516 c 0.666435,-0.69122 5.709256,-6.13833 11.206268,-12.10468 5.497013,-5.96636 10.936404,-11.83019 12.087544,-13.03073 2.21797,-2.31318 2.90935,-2.62124 3.76384,-1.67705 1.07767,1.19082 0.80708,1.50987 -8.84237,10.42623 -5.020469,4.63905 -11.356867,10.50652 -14.080884,13.03882 -4.775619,4.43951 -6.652276,5.95895 -4.134398,3.34741 z m -7.449302,0.93576 c 0,-0.0795 -1.309687,-4.39993 -2.910416,-9.60086 -1.60073,-5.20093 -2.910417,-9.7311 -2.910417,-10.06704 0,-0.82984 0.67414,-1.44234 1.5875,-1.44234 0.709091,0 1.5875,0.57489 1.5875,1.03896 0,0.11407 0.66072,4.64391 1.468268,10.0663 0.807548,5.4224 1.402861,9.92431 1.322917,10.00425 -0.07994,0.0799 -0.145352,0.0803 -0.145352,8e-4 z m 4.7625,-0.16575 c 0,-0.344 11.346741,-21.00158 11.827474,-21.53279 0.551288,-0.60916 1.729377,-0.60204 2.286727,0.0138 1.030288,1.13846 1.342065,0.64685 -12.991198,20.48438 -0.906399,1.25448 -1.123003,1.45404 -1.123003,1.0346 z m -15.615303,-6.05856 c -21.384764,-19.74866 -21.426364,-19.78837 -21.426364,-20.4534 0,-0.71632 0.927455,-1.57628 1.699998,-1.57628 0.645232,0 1.893504,1.2827 13.517843,13.89063 2.012524,2.18281 5.7359,6.20724 8.274167,8.94318 2.53827,2.73594 4.569299,5.02017 4.513398,5.07607 -0.0559,0.0559 -3.01647,-2.59019 -6.579042,-5.8802 z m 12.070932,-0.33384 c -0.620602,-18.73224 -0.903359,-33.74063 -0.641615,-34.05601 0.404873,-0.48784 1.526085,-0.41977 1.727412,0.10488 0.153485,0.39998 -0.657479,38.47498 -0.83302,39.1105 -0.04019,0.14552 -0.153945,-2.17619 -0.252777,-5.15937 z m 30.553915,-9.10278 c 0.0606,-0.0588 3.26448,-2.68332 7.11965,-5.83223 7.50457,-6.12972 7.76192,-6.2729 8.78934,-4.89028 0.95823,1.28951 0.53365,1.63655 -7.84428,6.41173 -6.64292,3.78628 -8.6053,4.83521 -8.06471,4.31078 z"
       id="path909" />
    <text
       xml:space="preserve"
       id="text1997"
       style="font-style:normal;font-weight:normal;font-size:89.9583px;line-height:1.25;font-family:sans-serif;white-space:pre;shape-inside:url(#rect1999);fill:#000000;fill-opacity:1;stroke:none;"
       transform="translate(27.270574,-2.5353379)"><tspan
         x="24.345703"
         y="454.17447"><tspan
           style="font-style:normal;font-variant:normal;font-weight:normal;font-stretch:normal;font-size:89.9583px;font-family:Ubuntu;-inkscape-font-specification:Ubuntu">3</tspan></tspan></text>
  </g>
</svg>
