<?xml version="1.0" encoding="UTF-8" standalone="no"?>
<svg
   xmlns:dc="http://purl.org/dc/elements/1.1/"
   xmlns:cc="http://creativecommons.org/ns#"
   xmlns:rdf="http://www.w3.org/1999/02/22-rdf-syntax-ns#"
   xmlns:svg="http://www.w3.org/2000/svg"
   xmlns="http://www.w3.org/2000/svg"
   xmlns:sodipodi="http://sodipodi.sourceforge.net/DTD/sodipodi-0.dtd"
   xmlns:inkscape="http://www.inkscape.org/namespaces/inkscape"
   width="179.91667mm"
   height="179.91667mm"
   viewBox="0 0 179.91667 179.91667"
   version="1.1"
   id="svg8"
   inkscape:version="1.0.2 (e86c870879, 2021-01-15, custom)"
   sodipodi:docname="1.svg">
  <defs
     id="defs2">
    <rect
       x="36.529045"
       y="266.47637"
       width="123.47852"
       height="103.16604"
       id="rect3151" />
  </defs>
  <sodipodi:namedview
     id="base"
     pagecolor="#ffffff"
     bordercolor="#666666"
     borderopacity="1.0"
     inkscape:pageopacity="0.0"
     inkscape:pageshadow="2"
     inkscape:zoom="0.98994949"
     inkscape:cx="498.35476"
     inkscape:cy="472.80361"
     inkscape:document-units="mm"
     inkscape:current-layer="layer1"
     inkscape:document-rotation="0"
     showgrid="false"
     fit-margin-top="0"
     fit-margin-left="0"
     fit-margin-right="0"
     fit-margin-bottom="0"
     inkscape:window-width="1920"
     inkscape:window-height="1017"
     inkscape:window-x="1912"
     inkscape:window-y="-8"
     inkscape:window-maximized="1" />
  <metadata
     id="metadata5">
    <rdf:RDF>
      <cc:Work
         rdf:about="">
        <dc:format>image/svg+xml</dc:format>
        <dc:type
           rdf:resource="http://purl.org/dc/dcmitype/StillImage" />
        <dc:title></dc:title>
      </cc:Work>
    </rdf:RDF>
  </metadata>
  <g
     inkscape:label="Layer 1"
     inkscape:groupmode="layer"
     id="layer1"
     transform="translate(-5.7930489,-221.30782)">
    <path
       style="fill:#ffdb42;stroke-width:0.265;stroke:#000000;stroke-opacity:1;stroke-miterlimit:4;stroke-dasharray:none;fill-opacity:1;stroke-linecap:round;stroke-linejoin:round"
       d="m 99.098638,340.94365 c -0.318301,-0.35172 -0.983982,-3.81704 -2.422258,-12.60946 -1.91439,-11.703 -2.111517,-13.05131 -1.873276,-12.81265 0.240355,0.24077 7.033696,23.85213 7.033696,24.44675 0,1.24437 -1.886555,1.91637 -2.738162,0.97536 z m -23.039814,-3.89952 c -1.057926,-1.05792 -0.726059,-1.65837 6.35085,-11.49047 6.883506,-9.56341 7.520876,-10.39979 7.520876,-9.8691 0,0.37085 -11.041705,20.67503 -11.589943,21.31232 -0.495192,0.57563 -1.72788,0.60115 -2.281783,0.0473 z m 25.693506,-21.04626 c -2.01099,-1.61215 -3.604893,-2.98263 -3.542006,-3.04551 0.213145,-0.21315 8.482426,3.99916 8.766046,4.46536 0.37984,0.62437 -0.0998,1.36996 -0.93292,1.4502 -0.46165,0.0445 -1.63199,-0.7383 -4.29112,-2.87005 z m -38.743134,1.58187 c -0.181901,-0.1837 -0.330729,-0.60082 -0.330729,-0.92693 0,-0.32611 0.148828,-0.68925 0.330729,-0.80698 0.363611,-0.23533 23.28204,-4.532 23.459723,-4.39814 0.06063,0.0457 0.06063,0.13216 0,0.19218 -0.101608,0.10059 -21.403786,5.90862 -22.599827,6.16184 -0.291042,0.0616 -0.677995,-0.0383 -0.859896,-0.22197 z m 36.314063,-9.09478 c 1.385301,-0.49 30.060481,-8.33131 30.467081,-8.33131 1.22685,0 1.88512,1.87708 0.95219,2.71521 -0.31616,0.28403 -5.2748,1.26211 -15.63387,3.08372 -13.25849,2.33146 -16.843216,2.90654 -15.785401,2.53238 z m -22.064184,-7.63733 c -5.877904,-3.22555 -10.852177,-6.11326 -11.05394,-6.41713 -0.283816,-0.42745 -0.301498,-0.72436 -0.07812,-1.31189 0.640493,-1.68462 1.515737,-1.56048 4.52814,0.64228 1.360895,0.99513 5.74857,4.16253 9.750393,7.03867 4.001823,2.87615 7.387167,5.33419 7.522986,5.46232 0.897813,0.84696 -1.194306,-0.21469 -10.669461,-5.41425 z m 14.788142,3.74751 c 0,-0.0795 -1.309687,-4.39993 -2.910417,-9.60086 -1.600729,-5.20093 -2.910416,-9.7311 -2.910416,-10.06704 0,-0.82984 0.67414,-1.44234 1.5875,-1.44234 0.709091,0 1.5875,0.57489 1.5875,1.03896 0,0.11407 0.66072,4.64391 1.468268,10.0663 0.807548,5.4224 1.402861,9.92431 1.322917,10.00425 -0.07994,0.0799 -0.145352,0.0803 -0.145352,8e-4 z m 4.7625,-0.16575 c 0,-0.344 11.346743,-21.00158 11.827473,-21.53279 0.55129,-0.60916 1.72938,-0.60204 2.28673,0.0138 1.03029,1.13846 1.34206,0.64685 -12.9912,20.48438 -0.906399,1.25448 -1.123003,1.45404 -1.123003,1.0346 z"
       id="path893" />
    <text
       xml:space="preserve"
       id="text3149"
       style="font-style:normal;font-weight:normal;font-size:89.9583px;line-height:1.25;font-family:sans-serif;white-space:pre;shape-inside:url(#rect3151);fill:#000000;fill-opacity:1;stroke:none;"
       transform="translate(28.387548,-7.925267)"><tspan
         x="36.529297"
         y="350.36197"><tspan
           style="font-style:normal;font-variant:normal;font-weight:normal;font-stretch:normal;font-size:89.9583px;font-family:Ubuntu;-inkscape-font-specification:Ubuntu">1</tspan></tspan></text>
  </g>
</svg>
