<?xml version="1.0" encoding="UTF-8" standalone="no"?>
<svg
   xmlns:dc="http://purl.org/dc/elements/1.1/"
   xmlns:cc="http://creativecommons.org/ns#"
   xmlns:rdf="http://www.w3.org/1999/02/22-rdf-syntax-ns#"
   xmlns:svg="http://www.w3.org/2000/svg"
   xmlns="http://www.w3.org/2000/svg"
   xmlns:sodipodi="http://sodipodi.sourceforge.net/DTD/sodipodi-0.dtd"
   xmlns:inkscape="http://www.inkscape.org/namespaces/inkscape"
   width="179.91667mm"
   height="179.91667mm"
   viewBox="0 0 179.91667 179.91667"
   version="1.1"
   id="svg8"
   inkscape:version="1.0.2 (e86c870879, 2021-01-15, custom)"
   sodipodi:docname="4.svg">
  <defs
     id="defs2">
    <rect
       x="53.322745"
       y="426.7938"
       width="107.17508"
       height="110.11505"
       id="rect1420" />
  </defs>
  <sodipodi:namedview
     id="base"
     pagecolor="#ffffff"
     bordercolor="#666666"
     borderopacity="1.0"
     inkscape:pageopacity="0.0"
     inkscape:pageshadow="2"
     inkscape:zoom="0.98994949"
     inkscape:cx="495.49166"
     inkscape:cy="328.51918"
     inkscape:document-units="mm"
     inkscape:current-layer="layer1"
     inkscape:document-rotation="0"
     showgrid="false"
     fit-margin-top="0"
     fit-margin-left="0"
     fit-margin-right="0"
     fit-margin-bottom="0"
     inkscape:window-width="1920"
     inkscape:window-height="1017"
     inkscape:window-x="1912"
     inkscape:window-y="-8"
     inkscape:window-maximized="1" />
  <metadata
     id="metadata5">
    <rdf:RDF>
      <cc:Work
         rdf:about="">
        <dc:format>image/svg+xml</dc:format>
        <dc:type
           rdf:resource="http://purl.org/dc/dcmitype/StillImage" />
        <dc:title></dc:title>
      </cc:Work>
    </rdf:RDF>
  </metadata>
  <g
     inkscape:label="Layer 1"
     inkscape:groupmode="layer"
     id="layer1"
     transform="translate(-6.5505772,-377.08167)">
    <path
       style="fill:#ffdb42;stroke-width:0.265;fill-opacity:1;stroke:#000000;stroke-opacity:1;stroke-miterlimit:4;stroke-dasharray:none;stroke-linejoin:round;stroke-linecap:round"
       d="m 77.46822,550.13657 c -0.150641,-0.28148 -0.273891,-0.71698 -0.273891,-0.9678 0,-0.25081 1.254574,-6.53918 2.787941,-13.97416 1.533369,-7.43498 4.513019,-21.91205 6.621446,-32.17127 2.108425,-10.25922 3.996145,-19.3675 4.194929,-20.24063 0.198787,-0.87312 0.638197,-3.05797 0.976469,-4.85522 0.33827,-1.79725 0.655863,-3.14525 0.70576,-2.99556 0.0499,0.1497 -0.687482,4.95392 -1.63862,10.67606 -1.727052,10.39009 -6.255589,37.85058 -9.046014,54.85389 -0.811972,4.94771 -1.646534,9.26373 -1.854587,9.59115 -0.497948,0.78365 -2.070322,0.83676 -2.473433,0.0835 z m 32.82458,-8.58556 c -0.30946,-0.37288 -5.92905,-30.73905 -5.77444,-31.2029 0.0466,-0.13975 0.70656,1.99476 1.46661,4.74338 0.76005,2.74861 2.62838,9.40279 4.15186,14.78706 1.52348,5.38427 2.77137,10.15272 2.7731,10.59656 0.002,0.44384 -0.13973,0.94985 -0.31435,1.12448 -0.4329,0.4329 -1.92939,0.40133 -2.30278,-0.0486 z m -57.64585,-9.5708 c -1.186645,-0.83116 -0.867455,-1.47525 4.722914,-9.53039 2.921026,-4.20889 6.932633,-10.00083 8.914688,-12.87099 1.982055,-2.87017 3.650673,-5.17154 3.708043,-5.11417 0.05737,0.0574 -1.351743,2.70334 -3.131368,5.87993 -1.779624,3.1766 -5.199515,9.28797 -7.599759,13.58083 -2.400245,4.29287 -4.549243,7.95404 -4.775555,8.13594 -0.550272,0.44229 -1.128051,0.41679 -1.838963,-0.0811 z m 15.190352,-4.10524 c -0.383427,-0.3016 -0.69714,-0.739 -0.69714,-0.97199 0,-0.23299 1.444482,-3.64739 3.209959,-7.58756 1.765477,-3.94018 4.30402,-9.60474 5.641203,-12.58791 1.337183,-2.98318 5.156922,-11.52029 8.488309,-18.97135 3.33139,-7.45107 6.100445,-13.50402 6.153457,-13.451 0.05302,0.053 -3.257544,8.76871 -7.356795,19.36822 -4.09925,10.59951 -8.705964,22.54605 -10.237139,26.54788 -3.203472,8.37247 -3.581324,8.92842 -5.201854,7.65371 z m 50.737778,0.34588 c -0.53212,-0.35531 -0.20145,0.47766 -9.89766,-24.93293 -1.13833,-2.98317 -4.05671,-10.60317 -6.48531,-16.93333 -6.167391,-16.07539 -6.189917,-16.32114 -0.26677,-2.91042 2.28168,5.16599 4.96761,11.23818 5.96874,13.49375 1.00113,2.25558 4.27771,9.63745 7.28129,16.40417 3.00358,6.76672 5.52735,12.76773 5.60837,13.33558 0.1156,0.8102 0.0423,1.10923 -0.34037,1.38907 -0.53184,0.38889 -1.40838,0.46119 -1.86829,0.15411 z m 12.68316,-5.94907 c -0.29288,-0.32743 -1.34009,-1.84547 -2.32715,-3.37344 -0.98706,-1.52797 -2.60927,-4.02828 -3.60492,-5.55625 -17.72188,-27.1968 -25.1397,-38.69075 -25.03641,-38.79404 0.0598,-0.0598 1.6381,2.00669 3.50739,4.59215 1.86928,2.58547 7.93549,10.95163 13.48046,18.59147 5.54497,7.63985 11.59104,15.97422 13.43571,18.52084 1.84467,2.54661 3.35675,4.81207 3.36018,5.03435 0.0221,1.43138 -1.83481,2.08102 -2.81526,0.98492 z M 23.219328,514.92959 c -0.697551,-0.69755 -0.670771,-1.6304 0.06614,-2.30405 0.327422,-0.29932 3.631407,-2.53707 7.342188,-4.97277 8.830911,-5.79649 15.768154,-10.35922 28.835557,-18.96556 24.080875,-15.85993 24.777941,-16.31171 24.517321,-15.89002 -0.09105,0.14732 -2.399331,1.86842 -5.129522,3.82467 -10.855262,7.77806 -47.246736,33.86839 -50.598418,36.27578 -1.961128,1.40862 -3.776831,2.56112 -4.034896,2.56112 -0.258065,0 -0.707334,-0.23813 -0.998375,-0.52917 z m 70.171168,-3.23911 c -0.217347,-0.26189 -0.157903,-5.46676 0.225832,-19.77368 0.286454,-10.68003 0.578223,-19.47563 0.648372,-19.54578 0.07015,-0.0702 0.127524,0.9341 0.127498,2.23166 -2.9e-5,1.29756 0.184647,9.08623 0.410387,17.30816 0.225743,8.22193 0.374592,16.08005 0.33078,17.4625 -0.07868,2.48267 -0.08806,2.51452 -0.763768,2.59306 -0.376256,0.0437 -0.816853,-0.0804 -0.979101,-0.27592 z m 65.287894,-3.85709 c -0.33326,-0.14818 -9.96632,-6.77724 -17.85177,-12.28483 -1.01864,-0.71147 -3.25022,-2.25842 -4.95906,-3.43767 -1.70883,-1.17925 -3.06345,-2.18761 -3.01025,-2.2408 0.15566,-0.15567 27.25063,15.04663 27.61462,15.49386 0.48966,0.60163 0.40177,1.5571 -0.19843,2.15731 -0.54866,0.54865 -0.90592,0.61856 -1.59511,0.31213 z m -97.779003,-9.17375 c -0.248476,-0.37922 -0.367951,-0.91337 -0.281109,-1.25677 0.08307,-0.32848 2.626272,-2.87824 5.651563,-5.66613 3.025291,-2.78789 9.368981,-8.64287 14.097088,-13.01108 4.728109,-4.3682 8.642802,-7.89595 8.69932,-7.83943 0.05652,0.0565 -1.972088,2.33963 -4.508013,5.07358 -2.535926,2.73395 -8.351885,9.01895 -12.924354,13.96665 -4.572468,4.94771 -8.436377,9.08331 -8.586462,9.19022 -0.609542,0.4342 -1.718702,0.19821 -2.148033,-0.45704 z m 52.776463,-12.10661 c -14.904338,-16.1318 -14.709594,-15.91774 -14.361939,-15.78655 0.575249,0.21708 28.094099,25.78766 28.377909,26.36883 0.34719,0.71094 0.0194,1.76825 -0.6249,2.01549 -1.274,0.48887 -1.47415,0.30058 -13.39107,-12.59777 z M 99.856167,496.7175 c -0.318302,-0.35172 -0.983983,-3.81704 -2.422258,-12.60946 -1.91439,-11.703 -2.111518,-13.05131 -1.873277,-12.81265 0.240356,0.24077 7.033698,23.85213 7.033698,24.44675 0,1.24437 -1.88656,1.91637 -2.738163,0.97536 z m -23.039814,-3.89952 c -1.057926,-1.05792 -0.726059,-1.65837 6.350849,-11.49047 6.883506,-9.56341 7.520877,-10.39979 7.520877,-9.8691 0,0.37085 -11.041706,20.67503 -11.589944,21.31232 -0.495191,0.57563 -1.72788,0.60115 -2.281782,0.0472 z m 69.698807,-3.80211 c -4.43838,-2.0075 -13.72526,-6.17616 -20.6375,-9.26369 -20.41843,-9.12041 -22.73596,-10.17274 -22.63214,-10.27656 0.0931,-0.0931 4.45694,1.57191 26.73318,10.20033 5.09323,1.97279 12.17745,4.70455 15.74271,6.07056 10.49283,4.02028 10.67542,4.10186 10.9542,4.89457 0.34583,0.98334 -0.38243,2.07063 -1.36915,2.04415 -0.39683,-0.0106 -4.35291,-1.66187 -8.7913,-3.66936 z m -114.719941,2.76461 c -0.504705,-0.77028 -0.331049,-1.84899 0.35692,-2.21712 0.400684,-0.2144 7.833335,-3.06175 45.1258,-17.28708 4.193332,-1.59956 7.692422,-2.8401 7.775758,-2.75677 0.08334,0.0833 -0.132881,0.26154 -0.480486,0.39602 -0.347604,0.13447 -9.561695,4.19774 -20.475758,9.02948 -10.914062,4.83175 -22.242018,9.84475 -25.173234,11.14 -2.931218,1.29525 -5.637144,2.355 -6.013172,2.355 -0.43677,0 -0.839757,-0.2382 -1.115828,-0.65953 z m -13.429676,-7.76183 c -0.240835,-0.26612 -0.437882,-0.71961 -0.437882,-1.00776 0,-1.37839 -0.129864,-1.3439 16.429339,-4.36316 8.644644,-1.57619 15.821182,-2.83365 15.947859,-2.79436 0.12668,0.0393 -1.361602,0.50683 -3.307292,1.03899 -1.945688,0.53215 -8.835895,2.46173 -15.311573,4.28796 -6.475677,1.82623 -12.023396,3.32081 -12.328263,3.3213 -0.304868,5.3e-4 -0.751353,-0.21685 -0.992188,-0.48297 z m 101.121347,-0.37604 c -0.59956,-0.48781 -2.94488,-3.65098 -2.80828,-3.78757 0.25862,-0.25863 4.49772,0.82866 4.97903,1.27707 1.44752,1.34857 -0.63651,3.75878 -2.17075,2.5105 z m 22.92723,-7.51874 c -6.20431,-1.39042 -24.02572,-5.29024 -33.92671,-7.42412 -3.81657,-0.82256 -6.89499,-1.53978 -6.84095,-1.59382 0.22751,-0.22751 47.42228,7.15851 47.97756,7.50852 0.70843,0.44656 0.80529,1.70278 0.17954,2.32853 -0.6011,0.60109 -1.49368,0.50215 -7.38944,-0.81911 z m -39.90426,-4.35215 c -2.01099,-1.61215 -3.604894,-2.98263 -3.542008,-3.04551 0.213146,-0.21315 8.482428,3.99916 8.766038,4.46536 0.37985,0.62437 -0.0998,1.36996 -0.93291,1.4502 -0.46165,0.0445 -1.63199,-0.7383 -4.29112,-2.87005 z m -38.743136,1.58187 c -0.181901,-0.1837 -0.330729,-0.60082 -0.330729,-0.92693 0,-0.32611 0.148828,-0.68925 0.330729,-0.80698 0.363612,-0.23533 23.28204,-4.532 23.459724,-4.39814 0.06063,0.0457 0.06063,0.13216 0,0.19218 -0.101608,0.10059 -21.403787,5.90862 -22.599828,6.16184 -0.291042,0.0616 -0.677995,-0.0383 -0.859896,-0.22197 z M 41.581332,467.1021 c -0.160115,-0.10691 -0.428554,-0.45547 -0.59653,-0.77458 -0.394364,-0.74918 0.08308,-1.88735 0.875107,-2.08613 0.307007,-0.0771 9.305621,0.16392 19.99692,0.53551 10.691302,0.37158 20.540015,0.6756 21.886032,0.6756 1.455145,0 2.447301,0.10727 2.447301,0.26459 0,0.15815 -1.037717,0.26544 -2.579688,0.26673 -1.418828,0.001 -11.033125,0.29808 -21.365104,0.65978 -21.165765,0.74095 -20.270762,0.7211 -20.664038,0.4585 z m 76.821848,-0.80637 c -8.40382,-0.2209 -15.27968,-0.47631 -15.27968,-0.56758 0,-0.28022 36.82632,-1.12599 37.10024,-0.85206 0.13606,0.13605 0.2083,0.58929 0.16055,1.0072 l -0.0868,0.75984 -3.30729,0.0271 c -1.81901,0.0149 -10.18315,-0.15362 -18.58698,-0.37452 z m -34.858851,-2.19846 c -1.964532,-0.27902 -8.384302,-1.14448 -14.266159,-1.92325 -9.008896,-1.19279 -10.749767,-1.49181 -11.046355,-1.89742 -0.78332,-1.07125 -0.07338,-2.49701 1.243354,-2.49701 0.510511,0 27.799147,6.4087 28.699368,6.74001 0.612873,0.22556 -1.291579,0.0519 -4.630208,-0.42233 z m 16.536461,0.16154 c 1.3853,-0.49 30.06048,-8.33131 30.46708,-8.33131 1.22685,0 1.88512,1.87708 0.95219,2.71521 -0.31617,0.28403 -5.27481,1.26211 -15.63387,3.08372 -13.25849,2.33146 -16.843218,2.90654 -15.7854,2.53238 z m 1.21267,-1.56159 c 0.0606,-0.0602 7.36402,-3.45492 16.22975,-7.54383 11.60466,-5.35211 16.27306,-7.38565 16.66774,-7.26038 1.18116,0.37488 1.58716,1.79188 0.7345,2.56352 -0.42611,0.38562 -32.86995,12.35014 -33.48953,12.35014 -0.13898,0 -0.20309,-0.0492 -0.14246,-0.10945 z m -23.276857,-6.07574 c -5.877904,-3.22555 -10.852176,-6.11326 -11.05394,-6.41713 -0.283816,-0.42745 -0.301498,-0.72436 -0.07812,-1.31189 0.640493,-1.68462 1.515737,-1.56048 4.52814,0.64228 1.360895,0.99513 5.748571,4.16253 9.750394,7.03867 4.001823,2.87615 7.387166,5.33419 7.522985,5.46232 0.897813,0.84696 -1.194305,-0.21469 -10.669461,-5.41425 z m 22.710007,4.48424 c 0.17255,-0.20791 2.24096,-1.83675 4.59645,-3.61964 2.3555,-1.78289 5.71148,-4.33343 7.45773,-5.66787 1.74625,-1.33443 3.35359,-2.48747 3.57187,-2.56231 0.62854,-0.21548 1.32292,0.28388 1.32292,0.95137 0,0.33612 -0.20836,0.78813 -0.46302,1.00445 -0.60496,0.51387 -16.39915,10.27203 -16.62594,10.27203 -0.0956,0 -0.0326,-0.17011 0.13999,-0.37803 z m -31.734365,-5.42765 c -7.203281,-2.87488 -18.276094,-7.27953 -24.60625,-9.7881 -6.330157,-2.50856 -11.658204,-4.68421 -11.840105,-4.83477 -0.575557,-0.47638 -0.400132,-1.50436 0.286112,-1.6766 0.449168,-0.11273 7.227737,2.73432 24.93698,10.47372 13.376077,5.8457 24.498732,10.73151 24.717013,10.85736 1.486625,0.8571 -1.947992,-0.42361 -13.49375,-5.03161 z m 31.261805,3.75516 c 0.66643,-0.69122 5.70925,-6.13833 11.20627,-12.10468 5.49701,-5.96636 10.9364,-11.83019 12.08754,-13.03073 2.21797,-2.31318 2.90935,-2.62124 3.76384,-1.67705 1.07767,1.19082 0.80708,1.50987 -8.84237,10.42623 -5.02047,4.63905 -11.35687,10.50652 -14.08089,13.03882 -4.775613,4.43951 -6.652271,5.95895 -4.13439,3.34741 z m -7.449305,0.93576 c 0,-0.0795 -1.309687,-4.39993 -2.910416,-9.60086 -1.600729,-5.20093 -2.910417,-9.7311 -2.910417,-10.06704 0,-0.82984 0.67414,-1.44234 1.5875,-1.44234 0.709091,0 1.5875,0.57489 1.5875,1.03896 0,0.11407 0.66072,4.64391 1.468268,10.0663 0.807548,5.4224 1.402861,9.92431 1.322917,10.00425 -0.07994,0.0799 -0.145352,0.0803 -0.145352,8e-4 z m 4.762501,-0.16575 c 0,-0.344 11.346744,-21.00158 11.827474,-21.53279 0.55129,-0.60916 1.72938,-0.60204 2.28673,0.0138 1.03028,1.13846 1.34206,0.64685 -12.991202,20.48438 -0.906399,1.25448 -1.123002,1.45404 -1.123002,1.0346 z m -15.615304,-6.05856 c -21.384763,-19.74866 -21.426364,-19.78837 -21.426364,-20.4534 0,-0.71632 0.927455,-1.57628 1.699998,-1.57628 0.645232,0 1.893504,1.2827 13.517844,13.89063 2.012524,2.18281 5.735899,6.20724 8.274166,8.94318 2.53827,2.73594 4.569299,5.02017 4.513398,5.07607 -0.0559,0.0559 -3.01647,-2.59019 -6.579042,-5.8802 z m 12.070932,-0.33384 c -0.620601,-18.73224 -0.903359,-33.74063 -0.641615,-34.05601 0.404874,-0.48784 1.526085,-0.41977 1.727412,0.10488 0.153485,0.39998 -0.657479,38.47498 -0.833019,39.1105 -0.04019,0.14552 -0.153946,-2.17619 -0.252778,-5.15937 z m -55.854588,2.49651 c -7.783835,-0.81277 -8.504009,-0.93012 -8.929688,-1.45502 -0.634324,-0.78218 -0.580936,-1.36764 0.190833,-2.09268 l 0.653853,-0.61426 9.069586,2.45103 c 4.988271,1.34806 9.119192,2.4967 9.179827,2.55252 0.215712,0.19857 -1.805485,0.0312 -10.164411,-0.84159 z M 88.32322,452.146 c -1.22791,-2.79512 -4.395701,-9.9636 -7.039531,-15.92995 -11.975206,-27.02455 -13.878944,-31.37976 -13.878944,-31.75108 0,-0.60339 0.98217,-1.45413 1.678784,-1.45413 0.957424,0 1.340638,0.62969 2.898325,4.7625 1.210882,3.21268 7.44025,19.5448 12.665065,33.20521 0.723561,1.89177 1.836735,4.8088 2.473716,6.48229 0.63698,1.67349 1.703462,4.46179 2.369958,6.19622 0.666499,1.73443 1.178825,3.24744 1.138502,3.36224 -0.04032,0.11481 -1.077963,-2.07818 -2.305875,-4.8733 z m 9.516655,4.73275 c -0.01275,-0.37957 20.106275,-52.34828 20.513625,-52.98795 0.20147,-0.31638 0.61344,-0.65368 0.91548,-0.74955 0.66864,-0.21221 1.72162,0.42304 1.91276,1.15394 0.15286,0.58454 0.43893,-0.0742 -13.28689,30.59794 -9.673369,21.61642 -10.04041,22.41897 -10.054975,21.98562 z M 82.16454,448.86178 C 79.041882,444.526 71.505284,434.07292 65.416539,425.63271 59.327796,417.1925 53.414761,408.9892 52.276462,407.40313 c -1.138298,-1.58605 -2.069634,-3.14518 -2.069634,-3.46472 0,-1.35819 1.867821,-1.9287 2.820276,-0.86143 0.292198,0.32742 3.986712,5.8936 8.210034,12.36927 4.223319,6.47568 10.949149,16.77459 14.946289,22.88646 3.99714,6.11188 8.306885,12.70361 9.57721,14.64829 1.270326,1.94469 2.258333,3.58714 2.195571,3.6499 -0.06276,0.0628 -2.669013,-3.43334 -5.791668,-7.76912 z m 13.835327,7.01094 c -0.01106,-0.24841 0.691634,-4.72262 1.56156,-9.94268 0.869927,-5.22006 2.539043,-15.31572 3.709143,-22.4348 6.86345,-41.7582 6.91291,-42.04346 7.3468,-42.37867 0.6407,-0.49498 1.77055,-0.39912 2.30904,0.1959 0.45949,0.50773 0.45676,0.62403 -0.076,3.24114 -0.91686,4.50407 -9.15305,44.39536 -12.086837,58.5416 -1.508977,7.27604 -2.752648,13.02592 -2.763716,12.77751 z m 41.916333,-0.35007 c 1.48271,-0.55198 30.65401,-8.59098 31.17426,-8.59098 1.46637,0 1.97603,2.34148 0.63459,2.91541 -0.59875,0.25618 -31.15147,5.8331 -31.7472,5.79495 -0.17942,-0.0115 -0.20717,-0.0652 -0.0616,-0.11938 z m -13.33941,-10.81459 c 0.0606,-0.0588 3.26448,-2.68332 7.11965,-5.83223 7.50457,-6.12972 7.76192,-6.2729 8.78934,-4.89028 0.95823,1.28951 0.53365,1.63655 -7.84428,6.41173 -6.64293,3.78628 -8.6053,4.83521 -8.06471,4.31078 z m -70.136629,-3.60937 c -0.509323,-0.29105 -6.639848,-3.73143 -13.62339,-7.64531 -6.983543,-3.91388 -12.857496,-7.35733 -13.05323,-7.65213 -0.731928,-1.10234 0.683312,-2.77452 1.882771,-2.22459 0.694257,0.31831 25.016197,17.13382 25.578151,17.68402 0.521732,0.51083 0.320344,0.46923 -0.784302,-0.16199 z m 64.307629,-14.81775 c -0.008,-0.22556 0.0932,-0.52321 0.22398,-0.66146 0.13082,-0.13824 2.23231,-3.82323 4.66998,-8.18885 2.43767,-4.36563 5.68551,-10.1821 7.21743,-12.92551 1.85033,-3.31361 2.99159,-5.08199 3.39981,-5.26799 1.34386,-0.6123 2.64172,0.87021 1.9285,2.20287 -0.17517,0.32732 -3.96553,5.85039 -8.42301,12.27349 -4.45749,6.4231 -8.30664,11.97068 -8.55367,12.32796 -0.3108,0.44951 -0.45342,0.52328 -0.46302,0.23949 z M 79.631784,406.3601 c -2.37018,-8.46329 -4.304946,-15.51818 -4.299479,-15.67753 0.01748,-0.50942 0.955019,-1.16548 1.66552,-1.16548 0.611058,0 1.51942,0.58462 1.51942,0.9779 0,0.0805 1.253416,7.05714 2.785367,15.50365 1.531951,8.44651 2.752341,15.44549 2.711979,15.55328 -0.04036,0.10779 -2.012624,-6.72852 -4.382807,-15.19182 z"
       id="path925" />
    <text
       xml:space="preserve"
       id="text1418"
       style="font-style:normal;font-weight:normal;font-size:89.9583px;line-height:1.25;font-family:sans-serif;white-space:pre;shape-inside:url(#rect1420);fill:#000000;fill-opacity:1;stroke:none;"
       transform="translate(17.908366,-12.467823)"><tspan
         x="53.322266"
         y="510.67838"><tspan
           style="font-style:normal;font-variant:normal;font-weight:normal;font-stretch:normal;font-size:89.9583px;font-family:Ubuntu;-inkscape-font-specification:Ubuntu">4</tspan></tspan></text>
  </g>
</svg>
