<?xml version="1.0" encoding="UTF-8" standalone="no"?>
<svg
   xmlns:dc="http://purl.org/dc/elements/1.1/"
   xmlns:cc="http://creativecommons.org/ns#"
   xmlns:rdf="http://www.w3.org/1999/02/22-rdf-syntax-ns#"
   xmlns:svg="http://www.w3.org/2000/svg"
   xmlns="http://www.w3.org/2000/svg"
   xmlns:sodipodi="http://sodipodi.sourceforge.net/DTD/sodipodi-0.dtd"
   xmlns:inkscape="http://www.inkscape.org/namespaces/inkscape"
   width="179.91667mm"
   height="179.91667mm"
   viewBox="0 0 179.91667 179.91667"
   version="1.1"
   id="svg8"
   inkscape:version="1.0.2 (e86c870879, 2021-01-15, custom)"
   sodipodi:docname="2.svg">
  <defs
     id="defs2">
    <rect
       x="88.267838"
       y="223.60175"
       width="133.63476"
       height="112.2532"
       id="rect2578" />
  </defs>
  <sodipodi:namedview
     id="base"
     pagecolor="#ffffff"
     bordercolor="#666666"
     borderopacity="1.0"
     inkscape:pageopacity="0.0"
     inkscape:pageshadow="2"
     inkscape:zoom="0.98994949"
     inkscape:cx="374.52739"
     inkscape:cy="372.78246"
     inkscape:document-units="mm"
     inkscape:current-layer="layer1"
     inkscape:document-rotation="0"
     showgrid="false"
     fit-margin-top="0"
     fit-margin-left="0"
     fit-margin-right="0"
     fit-margin-bottom="0"
     inkscape:window-width="1920"
     inkscape:window-height="1017"
     inkscape:window-x="1912"
     inkscape:window-y="-8"
     inkscape:window-maximized="1" />
  <metadata
     id="metadata5">
    <rdf:RDF>
      <cc:Work
         rdf:about="">
        <dc:format>image/svg+xml</dc:format>
        <dc:type
           rdf:resource="http://purl.org/dc/dcmitype/StillImage" />
        <dc:title></dc:title>
      </cc:Work>
    </rdf:RDF>
  </metadata>
  <g
     inkscape:label="Layer 1"
     inkscape:groupmode="layer"
     id="layer1"
     transform="translate(-38.555706,-164.26791)">
    <path
       style="fill:#fbfaf0;stroke-width:0.265;fill-opacity:1;stroke:#000000;stroke-opacity:1;stroke-miterlimit:4;stroke-dasharray:none;stroke-linecap:round;stroke-linejoin:round"
       d="m 125.39562,298.87672 c -0.21734,-0.26189 -0.1579,-5.46676 0.22584,-19.77368 0.28645,-10.68003 0.57822,-19.47563 0.64837,-19.54578 0.0701,-0.0702 0.12752,0.9341 0.1275,2.23166 -3e-5,1.29756 0.18464,9.08623 0.41038,17.30816 0.22575,8.22193 0.3746,16.08005 0.33078,17.4625 -0.0787,2.48267 -0.0881,2.51452 -0.76376,2.59306 -0.37626,0.0437 -0.81686,-0.0804 -0.97911,-0.27592 z m 6.46568,-14.97298 c -0.31831,-0.35172 -0.98399,-3.81704 -2.42226,-12.60946 -1.91439,-11.703 -2.11152,-13.05131 -1.87328,-12.81265 0.24036,0.24077 7.0337,23.85213 7.0337,24.44675 0,1.24437 -1.88656,1.91637 -2.73816,0.97536 z m -23.03982,-3.89952 c -1.05792,-1.05792 -0.72606,-1.65837 6.35085,-11.49047 6.8394,-9.50214 7.52088,-10.39745 7.52088,-9.88085 0,0.36565 -11.05273,20.70443 -11.58817,21.32407 -0.4974,0.57563 -1.72969,0.60112 -2.28356,0.0472 z m 42.67054,-9.17537 c -0.59956,-0.48781 -2.94488,-3.65098 -2.80829,-3.78757 0.25862,-0.25863 4.49773,0.82866 4.97903,1.27707 1.44753,1.34857 -0.6365,3.75878 -2.17074,2.5105 z m -16.97703,-11.87089 c -2.01099,-1.61215 -3.6049,-2.98263 -3.54201,-3.04551 0.21315,-0.21315 8.48243,3.99916 8.76604,4.46536 0.37985,0.62437 -0.0998,1.36996 -0.93291,1.4502 -0.46165,0.0445 -1.63199,-0.7383 -4.29112,-2.87005 z m -38.743137,1.58187 c -0.181901,-0.1837 -0.330729,-0.60082 -0.330729,-0.92693 0,-0.32611 0.148828,-0.68925 0.330729,-0.80698 0.363611,-0.23533 23.282037,-4.532 23.459727,-4.39814 0.0606,0.0457 0.0606,0.13216 0,0.19218 -0.10161,0.10059 -21.40379,5.90862 -22.599831,6.16184 -0.291042,0.0616 -0.677995,-0.0383 -0.859896,-0.22197 z m 54.636457,-7.05786 c -8.40383,-0.2209 -15.27969,-0.47631 -15.27969,-0.56758 0,-0.28022 36.82632,-1.12599 37.10025,-0.85206 0.13606,0.13605 0.2083,0.58929 0.16054,1.0072 l -0.0868,0.75984 -3.30729,0.0271 c -1.81901,0.0149 -10.18315,-0.15362 -18.58698,-0.37452 z m -34.85885,-2.19846 c -1.96453,-0.27902 -8.3843,-1.14448 -14.26616,-1.92325 -9.008898,-1.19279 -10.749769,-1.49181 -11.046356,-1.89742 -0.78332,-1.07125 -0.07338,-2.49701 1.243354,-2.49701 0.510511,0 27.799142,6.4087 28.699372,6.74001 0.61287,0.22556 -1.29158,0.0519 -4.63021,-0.42233 z m 16.53646,0.16154 c 1.3853,-0.49 30.06048,-8.33131 30.46708,-8.33131 1.22685,0 1.88512,1.87708 0.95219,2.71521 -0.31617,0.28403 -5.27481,1.26211 -15.63387,3.08372 -13.25849,2.33146 -16.84322,2.90654 -15.7854,2.53238 z m 1.21267,-1.56159 c 0.0606,-0.0602 7.36402,-3.45492 16.22975,-7.54383 11.60465,-5.35211 16.27306,-7.38565 16.66773,-7.26038 1.18116,0.37488 1.58717,1.79188 0.73451,2.56352 -0.42611,0.38562 -32.86995,12.35014 -33.48953,12.35014 -0.13898,0 -0.20309,-0.0493 -0.14246,-0.10945 z m -23.27686,-6.07574 c -5.8779,-3.22555 -10.852175,-6.11326 -11.053938,-6.41713 -0.283816,-0.42745 -0.301498,-0.72436 -0.07812,-1.31189 0.640493,-1.68462 1.515738,-1.56048 4.528138,0.64228 1.3609,0.99513 5.74857,4.16253 9.7504,7.03867 4.00182,2.87615 7.38716,5.33419 7.52298,5.46232 0.89782,0.84696 -1.1943,-0.21469 -10.66946,-5.41425 z m 22.71,4.48424 c 0.17256,-0.20791 2.24097,-1.83675 4.59646,-3.61964 2.3555,-1.78289 5.71148,-4.33343 7.45773,-5.66787 1.74625,-1.33443 3.35359,-2.48747 3.57187,-2.56231 0.62854,-0.21548 1.32292,0.28388 1.32292,0.95137 0,0.33612 -0.20836,0.78813 -0.46302,1.00445 -0.60496,0.51387 -16.39915,10.27203 -16.62594,10.27203 -0.0956,0 -0.0326,-0.17011 0.13998,-0.37803 z m -7.92186,-0.73673 c 0,-0.0795 -1.30968,-4.39993 -2.91041,-9.60086 -1.60073,-5.20093 -2.91042,-9.7311 -2.91042,-10.06704 0,-0.82984 0.67414,-1.44234 1.5875,-1.44234 0.70909,0 1.5875,0.57489 1.5875,1.03896 0,0.11407 0.66072,4.64391 1.46827,10.0663 0.80755,5.4224 1.40286,9.92431 1.32292,10.00425 -0.0799,0.0799 -0.14536,0.0803 -0.14536,8e-4 z m 4.7625,-0.16575 c 0,-0.344 11.34675,-21.00158 11.82748,-21.53279 0.55129,-0.60916 1.72938,-0.60204 2.28673,0.0138 1.03028,1.13846 1.34206,0.64685 -12.9912,20.48438 -0.9064,1.25448 -1.12301,1.45404 -1.12301,1.0346 z"
       id="path877" />
    <text
       xml:space="preserve"
       id="text2576"
       style="font-style:normal;font-variant:normal;font-weight:normal;font-stretch:normal;font-size:89.9583px;line-height:1.25;font-family:Ubuntu;-inkscape-font-specification:Ubuntu;white-space:pre;shape-inside:url(#rect2578);fill:#000000;fill-opacity:1;stroke:none;"
       transform="translate(15.687848,-21.370511)"><tspan
         x="88.267578"
         y="307.48697"><tspan
           style="font-style:normal;font-variant:normal;font-weight:normal;font-stretch:normal;font-size:89.9583px;font-family:Ubuntu;-inkscape-font-specification:Ubuntu">2</tspan></tspan></text>
  </g>
</svg>
