<?xml version="1.0" encoding="UTF-8" standalone="no"?>
<svg
   xmlns:dc="http://purl.org/dc/elements/1.1/"
   xmlns:cc="http://creativecommons.org/ns#"
   xmlns:rdf="http://www.w3.org/1999/02/22-rdf-syntax-ns#"
   xmlns:svg="http://www.w3.org/2000/svg"
   xmlns="http://www.w3.org/2000/svg"
   xmlns:sodipodi="http://sodipodi.sourceforge.net/DTD/sodipodi-0.dtd"
   xmlns:inkscape="http://www.inkscape.org/namespaces/inkscape"
   width="179.91667mm"
   height="179.91667mm"
   viewBox="0 0 179.91667 179.91667"
   version="1.1"
   id="svg8"
   inkscape:version="1.0.2 (e86c870879, 2021-01-15, custom)"
   sodipodi:docname="5.svg">
  <defs
     id="defs2">
    <rect
       x="68.432691"
       y="506.64101"
       width="119.43812"
       height="119.38009"
       id="rect841" />
  </defs>
  <sodipodi:namedview
     id="base"
     pagecolor="#ffffff"
     bordercolor="#666666"
     borderopacity="1.0"
     inkscape:pageopacity="0.0"
     inkscape:pageshadow="2"
     inkscape:zoom="0.98994949"
     inkscape:cx="546.58804"
     inkscape:cy="332.13835"
     inkscape:document-units="mm"
     inkscape:current-layer="layer1"
     inkscape:document-rotation="0"
     showgrid="false"
     fit-margin-top="0"
     fit-margin-left="0"
     fit-margin-right="0"
     fit-margin-bottom="0"
     inkscape:window-width="1920"
     inkscape:window-height="1017"
     inkscape:window-x="1912"
     inkscape:window-y="-8"
     inkscape:window-maximized="1"
     inkscape:snap-global="false" />
  <metadata
     id="metadata5">
    <rdf:RDF>
      <cc:Work
         rdf:about="">
        <dc:format>image/svg+xml</dc:format>
        <dc:type
           rdf:resource="http://purl.org/dc/dcmitype/StillImage" />
        <dc:title></dc:title>
      </cc:Work>
    </rdf:RDF>
  </metadata>
  <g
     inkscape:label="Layer 1"
     inkscape:groupmode="layer"
     id="layer1"
     transform="translate(6.9686737,-429.578)">
    <path
       style="fill:#fbfaf0;stroke-width:0.264583;stroke:#000000;stroke-opacity:1;fill-opacity:1"
       d="m 63.948969,602.6329 c -0.150641,-0.28148 -0.273891,-0.71698 -0.273891,-0.9678 0,-0.25081 1.254574,-6.53918 2.787941,-13.97416 1.533369,-7.43498 4.513019,-21.91205 6.621446,-32.17127 2.108425,-10.25922 3.996145,-19.3675 4.19493,-20.24063 0.198786,-0.87312 0.638196,-3.05797 0.976468,-4.85522 0.33827,-1.79725 0.655863,-3.14525 0.70576,-2.99556 0.0499,0.1497 -0.687482,4.95392 -1.63862,10.67606 -1.727052,10.39009 -6.255589,37.85058 -9.046014,54.85389 -0.811972,4.94771 -1.646534,9.26373 -1.854586,9.59115 -0.497949,0.78365 -2.070323,0.83676 -2.473434,0.0835 z m 18.004515,-0.86453 -0.348366,-1.24402 -1.358249,-0.0789 -1.358249,-0.0789 1.01778,-0.6327 c 1.069213,-0.66469 1.080524,-0.72101 0.533144,-2.65466 l -0.181608,-0.64154 0.927817,0.70768 c 0.510297,0.38923 1.024401,0.70768 1.14245,0.70768 0.118049,0 0.632153,-0.31845 1.14245,-0.70768 l 0.927817,-0.70768 -0.181608,0.64154 c -0.54738,1.93365 -0.536069,1.98997 0.533144,2.65466 l 1.01778,0.6327 -1.346446,0.0785 -1.346443,0.0785 -0.386525,1.24442 -0.386522,1.24442 z m 14.820067,-7.72103 c -0.309459,-0.37288 -5.929053,-30.73905 -5.774439,-31.2029 0.04659,-0.13975 0.706559,1.99476 1.466607,4.74338 0.760047,2.74861 2.628384,9.40279 4.15186,14.78706 1.523476,5.38427 2.771373,10.15272 2.773103,10.59656 0.0019,0.44384 -0.139729,0.94985 -0.314354,1.12448 -0.432895,0.4329 -1.929389,0.40133 -2.302777,-0.0486 z m 31.100419,-4.35506 c -0.39232,-0.43351 -2.38486,-5.85192 -2.21458,-6.02221 0.0792,-0.0792 2.52636,1.92127 3.96308,3.23964 0.70959,0.65114 0.99219,1.12922 0.99219,1.67854 0,1.37233 -1.83055,2.10973 -2.74069,1.10403 z M 39.1277,584.47654 c -1.186646,-0.83116 -0.867455,-1.47525 4.722913,-9.53039 2.921026,-4.20889 6.932634,-10.00083 8.914688,-12.87099 1.982055,-2.87017 3.650673,-5.17154 3.708043,-5.11417 0.05737,0.0574 -1.351743,2.70334 -3.131368,5.87993 -1.779624,3.1766 -5.199515,9.28797 -7.599759,13.58083 -2.400245,4.29287 -4.549243,7.95404 -4.775555,8.13594 -0.550272,0.44229 -1.128051,0.41679 -1.838962,-0.0811 z m 15.190351,-4.10524 c -0.383426,-0.3016 -0.69714,-0.739 -0.69714,-0.97199 0,-0.23299 1.444482,-3.64739 3.209959,-7.58756 1.765478,-3.94018 4.30402,-9.60474 5.641203,-12.58791 1.337183,-2.98318 5.156922,-11.52029 8.488309,-18.97135 3.33139,-7.45107 6.100446,-13.50402 6.153458,-13.451 0.05301,0.053 -3.257545,8.76871 -7.356796,19.36822 -4.09925,10.59951 -8.705964,22.54605 -10.237139,26.54788 -3.203472,8.37247 -3.581324,8.92842 -5.201854,7.65371 z m 50.737779,0.34588 c -0.53212,-0.35531 -0.20145,0.47766 -9.897663,-24.93293 -1.138325,-2.98317 -4.056711,-10.60317 -6.485306,-16.93333 -6.167393,-16.07539 -6.189919,-16.32114 -0.266771,-2.91042 2.281676,5.16599 4.967607,11.23818 5.968738,13.49375 1.00113,2.25558 4.277712,9.63745 7.281292,16.40417 3.00358,6.76672 5.52735,12.76773 5.60837,13.33558 0.1156,0.8102 0.0423,1.10923 -0.34037,1.38907 -0.53184,0.38889 -1.40838,0.46119 -1.86829,0.15411 z m -25.833155,-1.5346 c -1.407978,-0.76396 -1.915351,-2.67929 -1.083006,-4.08833 1.305293,-2.20969 4.469019,-1.79558 5.35183,0.70052 0.32874,0.92949 0.319178,1.15101 -0.08659,2.0061 -0.747644,1.57554 -2.660372,2.20746 -4.182234,1.38171 z m 38.516315,-4.41447 c -0.29288,-0.32743 -1.34009,-1.84547 -2.32715,-3.37344 -0.98706,-1.52797 -2.60927,-4.02828 -3.60492,-5.55625 -17.721882,-27.1968 -25.139704,-38.69075 -25.03641,-38.79404 0.05978,-0.0598 1.638104,2.00669 3.507388,4.59215 1.869284,2.58547 7.935492,10.95163 13.480462,18.59147 5.54497,7.63985 11.59104,15.97422 13.43571,18.52084 1.84467,2.54661 3.35675,4.81207 3.36018,5.03435 0.0221,1.43138 -1.83482,2.08102 -2.81526,0.98492 z m 5.90036,-4.05606 0.15416,-1.30176 -1.15348,-0.56531 -1.15349,-0.56531 1.05833,-0.18291 c 1.63184,-0.28202 1.71951,-0.33926 1.72384,-1.12556 0.002,-0.40475 0.11248,-0.90726 0.245,-1.1167 0.18669,-0.29505 0.34889,-0.15441 0.72042,0.62471 0.47852,1.00346 0.48212,1.00518 1.78437,0.85095 l 1.30488,-0.15455 -0.88869,0.9169 -0.8887,0.9169 0.45818,0.9608 c 0.25199,0.52845 0.40828,1.0107 0.3473,1.07168 -0.061,0.061 -0.54324,-0.0953 -1.07168,-0.3473 l -0.9608,-0.45817 -0.9169,0.88869 -0.9169,0.88869 z m -37.073874,0.35189 c -0.147032,-0.55259 -0.355666,-0.7276 -0.867381,-0.7276 -0.648676,0 -0.656577,-0.019 -0.21205,-0.51021 0.29614,-0.32723 0.399013,-0.70781 0.28685,-1.0612 -0.161731,-0.50957 -0.123203,-0.52745 0.512496,-0.2378 0.525793,0.23956 0.760322,0.24024 0.997699,0.003 0.509674,-0.50967 0.736869,-0.35322 0.477549,0.32884 -0.197835,0.52035 -0.135134,0.71451 0.337277,1.04446 l 0.580287,0.40529 -0.705556,0.0139 c -0.525513,0.0104 -0.770372,0.19955 -0.959565,0.74149 l -0.25401,0.7276 -0.193596,-0.7276 z M 9.7000766,567.42592 c -0.6975504,-0.69755 -0.6707701,-1.6304 0.066146,-2.30405 0.3274214,-0.29932 3.6314064,-2.53707 7.3421874,-4.97277 8.830911,-5.79649 15.768154,-10.35922 28.835557,-18.96556 24.080875,-15.85993 24.777941,-16.31171 24.517321,-15.89002 -0.09105,0.14732 -2.399331,1.86842 -5.129522,3.82467 -10.855262,7.77806 -47.246736,33.86839 -50.598418,36.27578 -1.961128,1.40862 -3.776831,2.56112 -4.034896,2.56112 -0.258065,0 -0.7073335,-0.23813 -0.9983754,-0.52917 z m 70.1711684,-3.23911 c -0.217347,-0.26189 -0.157903,-5.46676 0.225832,-19.77368 0.286454,-10.68003 0.578224,-19.47563 0.648373,-19.54578 0.07015,-0.0702 0.127523,0.9341 0.127497,2.23166 -2.9e-5,1.29756 0.184647,9.08623 0.410387,17.30816 0.225743,8.22193 0.374592,16.08005 0.33078,17.4625 -0.07868,2.48267 -0.08806,2.51452 -0.763768,2.59306 -0.376256,0.0437 -0.816853,-0.0804 -0.979101,-0.27592 z m -41.541777,-2.59432 c -0.887252,-0.35608 -1.441982,-1.83958 -1.078151,-2.88327 0.300011,-0.86061 1.389406,-1.60205 2.353889,-1.60205 0.872834,0 2.109455,1.39595 2.109455,2.38125 0,0.56951 -0.245555,1.08001 -0.773399,1.60785 -0.79171,0.79171 -1.527291,0.93147 -2.611794,0.49622 z m 90.214362,-0.64611 c -1.11555,-0.49575 -1.83338,-1.35283 -2.05059,-2.44841 -0.2502,-1.26189 0.0736,-2.17979 1.11563,-3.16255 0.72874,-0.68728 1.15176,-0.87408 1.97944,-0.87408 1.36176,0 2.50642,0.60485 3.15373,1.66649 0.6266,1.02765 0.65809,2.06031 0.0988,3.23896 -0.75821,1.59781 -2.67249,2.3015 -4.297,1.57959 z m 16.61531,-0.61666 c -0.33326,-0.14818 -9.96632,-6.77724 -17.85177,-12.28483 -1.01865,-0.71147 -3.25022,-2.25842 -4.95906,-3.43767 -1.70883,-1.17925 -3.06345,-2.18761 -3.01026,-2.2408 0.15567,-0.15567 27.25064,15.04663 27.61463,15.49386 0.48966,0.60163 0.40177,1.5571 -0.19843,2.15731 -0.54866,0.54865 -0.90592,0.61856 -1.59511,0.31213 z m -96.791534,-1.98204 c -0.265816,-0.323 -0.483648,-0.36867 -0.8425,-0.17662 -0.719801,0.38523 -0.834231,0.31929 -0.506999,-0.29215 0.235328,-0.43971 0.202162,-0.65374 -0.163989,-1.05833 -0.44151,-0.48786 -0.43193,-0.50716 0.251798,-0.50716 0.390922,0 0.779302,-0.17859 0.863063,-0.39688 0.216416,-0.56397 0.624848,-0.49191 0.624848,0.11025 0,0.31739 0.272217,0.59885 0.727605,0.7523 0.701857,0.23651 0.707117,0.25178 0.148645,0.43156 -0.364175,0.11724 -0.609563,0.44352 -0.661458,0.87953 -0.07426,0.62394 -0.118293,0.64965 -0.441013,0.2575 z m 10.941847,-5.57434 c -1.085761,-0.48748 -1.645341,-1.18298 -1.835034,-2.28075 -0.20152,-1.16622 0.241715,-2.04466 1.442013,-2.85787 1.559508,-1.05658 3.332671,-0.43216 4.131438,1.45488 0.934706,2.2082 -1.556774,4.66324 -3.738417,3.68374 z m -11.929317,-1.61737 c -0.248476,-0.37922 -0.367951,-0.91337 -0.281109,-1.25677 0.08307,-0.32848 2.626272,-2.87824 5.651563,-5.66613 3.025291,-2.78789 9.368981,-8.64287 14.097088,-13.01108 4.728109,-4.3682 8.642802,-7.89595 8.69932,-7.83943 0.05652,0.0565 -1.972088,2.33963 -4.508013,5.07358 -2.535926,2.73395 -8.351885,9.01895 -12.924354,13.96665 -4.572468,4.94771 -8.436377,9.08331 -8.586462,9.19022 -0.609542,0.4342 -1.718702,0.19821 -2.148033,-0.45704 z M 100.1566,539.04936 c -14.904338,-16.1318 -14.709594,-15.91774 -14.36194,-15.78655 0.575249,0.21708 28.0941,25.78766 28.37791,26.36883 0.34719,0.71094 0.0194,1.76825 -0.6249,2.01549 -1.274,0.48887 -1.47415,0.30058 -13.39107,-12.59777 z m -13.819684,10.16447 c -0.318302,-0.35172 -0.983983,-3.81704 -2.422258,-12.60946 -1.91439,-11.703 -2.111518,-13.05131 -1.873277,-12.81265 0.240356,0.24077 7.033697,23.85213 7.033697,24.44675 0,1.24437 -1.886556,1.91637 -2.738162,0.97536 z m -23.039814,-3.89952 c -1.057926,-1.05792 -0.726059,-1.65837 6.350849,-11.49047 6.883506,-9.56341 7.520877,-10.39979 7.520877,-9.8691 0,0.37085 -11.041706,20.67503 -11.589944,21.31232 -0.495191,0.57563 -1.72788,0.60115 -2.281782,0.0472 z m 51.372828,-0.21964 c 0.0908,-0.47522 -0.0194,-0.68015 -0.43741,-0.8128 -0.65842,-0.20898 -0.48095,-0.66845 0.25817,-0.66845 0.33717,0 0.51356,-0.18175 0.51356,-0.52917 0,-0.29104 0.11906,-0.52916 0.26458,-0.52916 0.14552,0 0.26458,0.17859 0.26458,0.39687 0,0.26892 0.26914,0.39688 0.83476,0.39688 0.80592,0 0.8189,0.0175 0.37578,0.50715 -0.36615,0.4046 -0.39931,0.61862 -0.16398,1.05833 0.32723,0.61144 0.2128,0.67738 -0.507,0.29216 -0.3516,-0.18817 -0.57283,-0.15198 -0.80876,0.13229 -0.48054,0.57902 -0.7319,0.47578 -0.59428,-0.2441 z m 18.32598,-3.58247 c -4.43838,-2.0075 -13.72526,-6.17616 -20.6375,-9.26369 -20.418426,-9.12041 -22.735965,-10.17274 -22.632142,-10.27656 0.09314,-0.0931 4.456938,1.57191 26.733182,10.20033 5.09323,1.97279 12.17745,4.70455 15.74271,6.07056 10.49283,4.02028 10.67542,4.10186 10.9542,4.89457 0.34583,0.98334 -0.38243,2.07063 -1.36915,2.04415 -0.39683,-0.0106 -4.35291,-1.66187 -8.7913,-3.66936 z m -114.719942,2.76461 c -0.504705,-0.77028 -0.331049,-1.84899 0.35692,-2.21712 0.400684,-0.2144 7.833335,-3.06175 45.125801,-17.28708 4.193331,-1.59956 7.692421,-2.8401 7.775757,-2.75677 0.08334,0.0833 -0.132881,0.26154 -0.480486,0.39602 -0.347604,0.13447 -9.561695,4.19774 -20.475758,9.02948 -10.914062,4.83175 -22.242018,9.84475 -25.173234,11.14 -2.931218,1.29525 -5.637143,2.355 -6.013172,2.355 -0.43677,0 -0.839757,-0.2382 -1.115828,-0.65953 z M 4.8462921,536.51498 c -0.2408354,-0.26612 -0.4378823,-0.71961 -0.4378823,-1.00776 0,-1.37839 -0.1298633,-1.3439 16.4293392,-4.36316 8.644644,-1.57619 15.821182,-2.83365 15.947859,-2.79436 0.12668,0.0393 -1.361602,0.50683 -3.307292,1.03899 -1.945688,0.53215 -8.835895,2.46173 -15.311573,4.28796 -6.475677,1.82623 -12.0233956,3.32081 -12.3282634,3.3213 -0.304868,5.3e-4 -0.7513524,-0.21685 -0.9921875,-0.48297 z M 105.96764,536.13894 c -0.59956,-0.48781 -2.94488,-3.65098 -2.80829,-3.78757 0.25862,-0.25863 4.49773,0.82866 4.97903,1.27707 1.44753,1.34857 -0.6365,3.75878 -2.17074,2.5105 z m 50.04702,-3.01203 c -9.16765,-2.5585 -8.842,-2.46216 -8.70297,-2.57483 0.0572,-0.0464 4.08435,0.30014 8.94919,0.77001 9.51438,0.91894 9.54337,0.92629 9.54337,2.42002 0,0.66202 -0.85472,1.67917 -1.38907,1.65307 -0.1819,-0.009 -3.96213,-1.02961 -8.40052,-2.26827 z m -27.11979,-4.50671 c -6.20431,-1.39042 -24.02572,-5.29024 -33.926711,-7.42412 -3.816567,-0.82256 -6.894992,-1.53978 -6.840945,-1.59382 0.227507,-0.22751 47.422276,7.15851 47.977556,7.50852 0.70843,0.44656 0.80529,1.70278 0.17953,2.32853 -0.60109,0.60109 -1.49367,0.50215 -7.38943,-0.81911 z m -39.904263,-4.35215 c -2.010989,-1.61215 -3.604892,-2.98263 -3.542006,-3.04551 0.213146,-0.21315 8.482425,3.99916 8.766043,4.46536 0.379846,0.62437 -0.09979,1.36996 -0.932918,1.4502 -0.461648,0.0445 -1.63199,-0.7383 -4.291119,-2.87005 z m -38.743134,1.58187 c -0.181901,-0.1837 -0.330729,-0.60082 -0.330729,-0.92693 0,-0.32611 0.148828,-0.68925 0.330729,-0.80698 0.363612,-0.23533 23.28204,-4.532 23.459724,-4.39814 0.06063,0.0457 0.06063,0.13216 0,0.19218 -0.101608,0.10059 -21.403787,5.90862 -22.599828,6.16184 -0.291042,0.0616 -0.677995,-0.0383 -0.859896,-0.22197 z m 86.900597,-3.08069 c -0.30376,-0.33655 -0.67645,-0.47778 -1.02222,-0.38736 -0.49049,0.12827 -0.51303,0.0841 -0.22846,-0.44758 0.26076,-0.48724 0.23552,-0.67849 -0.14502,-1.09899 -0.44705,-0.49398 -0.43602,-0.50415 0.37171,-0.3426 0.62902,0.1258 0.87267,0.0616 0.99711,-0.26265 0.248,-0.6463 0.63722,-0.51528 0.63722,0.2145 0,0.435 0.19297,0.70498 0.59531,0.8329 0.57391,0.18246 0.57629,0.19594 0.0661,0.37485 -0.2988,0.10479 -0.58676,0.5036 -0.66146,0.91609 -0.13124,0.72472 -0.13608,0.72631 -0.61034,0.20084 z M 2.8209098,520.37654 v -1.27647 l -1.2567708,-0.39473 -1.2567709,-0.39473 1.190625,-0.39984 c 1.1602988,-0.38966 1.1939945,-0.43263 1.3229167,-1.68708 l 0.1322917,-1.28724 0.6614583,0.98524 c 0.4991974,0.74355 0.7912672,0.9492 1.1906251,0.83836 0.2910416,-0.0808 0.8771334,-0.22253 1.3024263,-0.315 L 6.880971,516.27693 6.173857,517.204 c -0.3889127,0.50989 -0.7071138,1.01308 -0.7071138,1.11819 0,0.10511 0.3274219,0.62123 0.7276042,1.14693 l 0.7276042,0.95581 -0.6614584,-0.18608 c -1.946392,-0.54757 -2.0129887,-0.53585 -2.6300158,0.46252 -0.3234785,0.5234 -0.6379633,0.95163 -0.6988551,0.95163 -0.060892,0 -0.1107125,-0.57441 -0.1107125,-1.27646 z m 17.4354812,0.67252 c -0.578035,-0.3883 -1.03781,-1.00234 -1.287739,-1.71979 -0.341901,-0.98146 -0.341901,-1.25024 0,-2.23171 0.685587,-1.96805 3.130615,-2.93672 5.010982,-1.98524 0.974783,0.49324 1.860026,1.96916 1.860026,3.1011 0,1.13194 -0.885243,2.60785 -1.860026,3.1011 -1.051277,0.53195 -2.712532,0.41351 -3.723243,-0.26546 z m 147.003059,-0.57463 c -0.76054,-0.92893 -0.83028,-0.95648 -1.66715,-0.65861 -1.14645,0.40805 -1.28948,0.20513 -0.55535,-0.78785 l 0.60223,-0.81455 -0.60223,-0.81455 c -0.73374,-0.99245 -0.59151,-1.19505 0.55535,-0.79106 0.83688,0.2948 0.9092,0.26564 1.72936,-0.69701 l 0.85596,-1.00467 0.004,1.24615 c 0.004,1.22353 0.0232,1.2519 1.06227,1.56323 0.58208,0.1744 1.05833,0.39846 1.05833,0.49791 0,0.0994 -0.46984,0.32159 -1.0441,0.49364 -0.99874,0.29923 -1.04758,0.36546 -1.12447,1.52483 l -0.0804,1.21201 -0.79375,-0.96947 z m -139.197369,-0.876 c -0.160115,-0.10691 -0.428554,-0.45547 -0.59653,-0.77458 -0.394364,-0.74918 0.08308,-1.88735 0.875107,-2.08613 0.307007,-0.0771 9.305621,0.16392 19.99692,0.53551 10.691302,0.37158 20.540015,0.6756 21.886032,0.6756 1.455145,0 2.447301,0.10727 2.447301,0.26459 0,0.15815 -1.037717,0.26544 -2.579687,0.26673 -1.418829,10e-4 -11.033126,0.29808 -21.365105,0.65978 -21.165765,0.74095 -20.270761,0.7211 -20.664038,0.4585 z m 76.821849,-0.80637 c -8.403826,-0.2209 -15.279685,-0.47631 -15.279685,-0.56758 0,-0.28022 36.826325,-1.12599 37.100245,-0.85206 0.13606,0.13605 0.2083,0.58929 0.16054,1.0072 l -0.0868,0.75984 -3.30729,0.0271 c -1.81901,0.0149 -10.18315,-0.15362 -18.58698,-0.37452 z M 70.025078,516.5936 c -1.964532,-0.27902 -8.384302,-1.14448 -14.266159,-1.92325 -9.008896,-1.19279 -10.749767,-1.49181 -11.046355,-1.89742 -0.78332,-1.07125 -0.07338,-2.49701 1.243354,-2.49701 0.510511,0 27.799147,6.4087 28.699368,6.74001 0.612873,0.22556 -1.291579,0.0518 -4.630208,-0.42233 z m 16.536458,0.16154 c 1.385306,-0.49 30.060484,-8.33131 30.467084,-8.33131 1.22685,0 1.88512,1.87708 0.95219,2.71521 -0.31617,0.28403 -5.27481,1.26211 -15.63387,3.08372 -13.25849,2.33146 -16.843218,2.90654 -15.785404,2.53238 z m 49.324444,-1.69637 c -1.73078,-1.73077 -0.53708,-4.51827 1.93487,-4.51827 1.58595,0 2.65556,1.06569 2.65556,2.64583 0,2.43451 -2.86126,3.60162 -4.59043,1.87244 z m -48.111771,0.13478 c 0.06064,-0.0602 7.364024,-3.45492 16.229751,-7.54383 11.60465,-5.35211 16.27306,-7.38565 16.66773,-7.26038 1.18117,0.37488 1.58717,1.79188 0.73451,2.56352 -0.42611,0.38562 -32.869951,12.35014 -33.489526,12.35014 -0.138988,0 -0.203097,-0.0493 -0.142465,-0.10945 z m -23.276857,-6.07574 c -5.877904,-3.22555 -10.852176,-6.11326 -11.05394,-6.41713 -0.283816,-0.42745 -0.301498,-0.72436 -0.07812,-1.31189 0.640493,-1.68462 1.515737,-1.56048 4.52814,0.64228 1.360895,0.99513 5.748571,4.16253 9.750394,7.03867 4.001823,2.87615 7.387166,5.33419 7.522985,5.46232 0.897813,0.84696 -1.194305,-0.21469 -10.669461,-5.41425 z m 22.710003,4.48424 c 0.172556,-0.20791 2.240963,-1.83675 4.596458,-3.61964 2.355499,-1.78289 5.711474,-4.33343 7.457724,-5.66787 1.746253,-1.33443 3.353593,-2.48747 3.571873,-2.56231 0.62854,-0.21548 1.32292,0.28388 1.32292,0.95137 0,0.33612 -0.20836,0.78813 -0.46302,1.00445 -0.60496,0.51387 -16.399153,10.27203 -16.625938,10.27203 -0.09557,0 -0.03257,-0.17011 0.139983,-0.37803 z M 55.472994,508.1744 c -7.203281,-2.87488 -18.276094,-7.27953 -24.60625,-9.7881 -6.330157,-2.50856 -11.658204,-4.68421 -11.840105,-4.83477 -0.575557,-0.47638 -0.400131,-1.50436 0.286113,-1.6766 0.449167,-0.11273 7.227737,2.73432 24.936979,10.47372 13.376077,5.8457 24.498732,10.73151 24.717013,10.85736 1.486625,0.8571 -1.947992,-0.42361 -13.49375,-5.03161 z m 31.261802,3.75516 c 0.666435,-0.69122 5.709256,-6.13833 11.206269,-12.10468 5.497015,-5.96636 10.936405,-11.83019 12.087535,-13.03073 2.21798,-2.31318 2.90936,-2.62124 3.76385,-1.67705 1.07767,1.19082 0.80708,1.50987 -8.84237,10.42623 -5.02047,4.63905 -11.356868,10.50652 -14.080886,13.03882 -4.775618,4.43951 -6.652276,5.95895 -4.134398,3.34741 z m -7.449301,0.93576 c 0,-0.0795 -1.309688,-4.39993 -2.910417,-9.60086 -1.600729,-5.20093 -2.910417,-9.7311 -2.910417,-10.06704 0,-0.82984 0.67414,-1.44234 1.5875,-1.44234 0.709091,0 1.5875,0.57489 1.5875,1.03896 0,0.11407 0.66072,4.64391 1.468268,10.0663 0.807548,5.4224 1.402861,9.92431 1.322917,10.00425 -0.07994,0.0799 -0.145351,0.0803 -0.145351,8e-4 z m 4.7625,-0.16575 c 0,-0.344 11.346741,-21.00158 11.827473,-21.53279 0.551288,-0.60916 1.729377,-0.60204 2.286727,0.0138 1.030288,1.13846 1.342065,0.64685 -12.991198,20.48438 -0.906399,1.25448 -1.123002,1.45404 -1.123002,1.0346 z m -15.615304,-6.05856 c -21.384763,-19.74866 -21.426364,-19.78837 -21.426364,-20.4534 0,-0.71632 0.927455,-1.57628 1.699999,-1.57628 0.645231,0 1.893503,1.2827 13.517843,13.89063 2.012524,2.18281 5.735899,6.20724 8.274166,8.94318 2.53827,2.73594 4.569299,5.02017 4.513398,5.07607 -0.0559,0.0559 -3.01647,-2.59019 -6.579042,-5.8802 z m 12.070932,-0.33384 c -0.620601,-18.73224 -0.903359,-33.74063 -0.641615,-34.05601 0.404874,-0.48784 1.526085,-0.41977 1.727412,0.10488 0.153485,0.39998 -0.657479,38.47498 -0.833019,39.1105 -0.04019,0.14552 -0.153946,-2.17619 -0.252778,-5.15937 z m -55.854588,2.49651 c -7.783835,-0.81277 -8.504009,-0.93012 -8.929687,-1.45502 -0.634325,-0.78218 -0.580937,-1.36764 0.190832,-2.09268 l 0.653854,-0.61426 9.069585,2.45103 c 4.988271,1.34806 9.119192,2.4967 9.179827,2.55252 0.215712,0.19857 -1.805485,0.0312 -10.164411,-0.84159 z m 50.154934,-4.16135 c -1.22791,-2.79512 -4.395701,-9.9636 -7.039531,-15.92995 -11.975206,-27.02455 -13.878944,-31.37976 -13.878944,-31.75108 0,-0.60339 0.98217,-1.45413 1.678784,-1.45413 0.957424,0 1.340639,0.62969 2.898325,4.7625 1.210882,3.21268 7.44025,19.5448 12.665065,33.20521 0.723561,1.89177 1.836735,4.8088 2.473717,6.48229 0.636979,1.67349 1.703461,4.46179 2.369957,6.19622 0.666499,1.73443 1.178825,3.24744 1.138502,3.36224 -0.04032,0.11481 -1.077962,-2.07818 -2.305875,-4.8733 z m 9.516655,4.73275 c -0.01275,-0.37957 20.106276,-52.34828 20.513626,-52.98795 0.20147,-0.31638 0.61344,-0.65368 0.91548,-0.74955 0.66864,-0.21221 1.72162,0.42304 1.91276,1.15394 0.15286,0.58454 0.43893,-0.0742 -13.286895,30.59794 -9.673365,21.61642 -10.040406,22.41897 -10.054971,21.98562 z M 68.645289,501.35811 C 65.522631,497.02233 57.986033,486.56925 51.897288,478.12904 45.808545,469.68883 39.89551,461.48553 38.757211,459.89946 c -1.138298,-1.58605 -2.069634,-3.14518 -2.069634,-3.46472 0,-1.35819 1.867821,-1.9287 2.820276,-0.86143 0.292198,0.32742 3.986713,5.8936 8.210034,12.36927 4.223319,6.47568 10.949149,16.77459 14.946289,22.88646 3.99714,6.11188 8.306885,12.70361 9.577211,14.64829 1.270325,1.94469 2.258332,3.58714 2.19557,3.6499 -0.06276,0.0628 -2.669013,-3.43334 -5.791668,-7.76912 z m 13.835327,7.01094 c -0.01106,-0.24841 0.691634,-4.72262 1.56156,-9.94268 0.869927,-5.22006 2.53904,-15.31572 3.709147,-22.4348 6.86345,-41.7582 6.912906,-42.04346 7.346799,-42.37867 0.640694,-0.49498 1.770552,-0.39912 2.309035,0.1959 0.459494,0.50773 0.456766,0.62403 -0.07598,3.24114 -0.916869,4.50407 -9.153057,44.39536 -12.086842,58.5416 -1.508977,7.27604 -2.752648,13.02592 -2.763716,12.77751 z m 41.916334,-0.35007 c 1.48271,-0.55198 30.65401,-8.59098 31.17426,-8.59098 1.46637,0 1.97603,2.34148 0.63459,2.91541 -0.59875,0.25618 -31.15148,5.8331 -31.7472,5.79495 -0.17943,-0.0115 -0.20717,-0.0652 -0.0617,-0.11938 z M -4.1859383,503.76044 c -0.6497793,-0.64978 -0.4201877,-1.98263 0.4226081,-2.45338 0.6507409,-0.36347 0.9334127,-0.29033 4.76250012,1.2323 l 4.07069828,1.61871 -4.412872,0.0162 c -3.7356686,0.0137 -4.4788699,-0.0498 -4.8429345,-0.41385 z m 134.0919883,-5.21246 -0.8409,-0.3106 0.83574,-1.38444 c 0.91993,-1.5239 1.88719,-2.06719 2.95654,-1.66062 1.23019,0.46771 1.60301,2.24198 0.66765,3.17735 -0.60549,0.60549 -2.24395,0.68621 -3.61903,0.17831 z m -83.691774,-1.71123 c -0.760063,-0.61546 -0.827106,-1.93453 -0.137081,-2.697 0.583817,-0.64511 2.036956,-0.70988 2.629628,-0.1172 1.695439,1.69543 -0.63074,4.3218 -2.492547,2.8142 z m 64.843264,0.36764 c 0.0606,-0.0588 3.26448,-2.68332 7.11965,-5.83223 7.50457,-6.12972 7.76192,-6.2729 8.78934,-4.89028 0.95823,1.28951 0.53364,1.63655 -7.84428,6.41173 -6.64293,3.78628 -8.6053,4.83521 -8.06471,4.31078 z m 26.76067,-2.56583 c 0.0399,-0.10853 0.89383,-0.92078 1.89768,-1.80499 1.76268,-1.55259 2.4384,-1.83326 3.46511,-1.43928 1.11322,0.42719 0.97688,2.53765 -0.19232,2.97703 -0.77982,0.29306 -5.26512,0.52488 -5.17047,0.26724 z m -96.897299,-1.04354 c -0.509323,-0.29105 -6.639849,-3.73143 -13.623391,-7.64531 -6.983543,-3.91388 -12.857496,-7.35733 -13.05323,-7.65213 -0.731928,-1.10234 0.683312,-2.77452 1.882771,-2.22459 0.694257,0.31831 25.016197,17.13382 25.578151,17.68402 0.521732,0.51083 0.320345,0.46923 -0.784301,-0.16199 z m -3.535265,-7.79306 c -0.08376,-0.21828 -0.472141,-0.39688 -0.863063,-0.39688 -0.683728,0 -0.693309,-0.0193 -0.251799,-0.50715 0.36911,-0.40786 0.400325,-0.61674 0.159428,-1.06686 -0.275913,-0.51555 -0.246002,-0.54626 0.379222,-0.38934 0.395533,0.0993 0.842938,0.0341 1.072205,-0.15616 0.330737,-0.27449 0.393438,-0.21879 0.393438,0.3495 0,0.46791 0.183264,0.735 0.595313,0.86759 0.584345,0.18804 0.581906,0.19609 -0.132292,0.43676 -0.455388,0.15345 -0.727604,0.4349 -0.727604,0.7523 0,0.60215 -0.408432,0.67421 -0.624848,0.11024 z m 36.712957,-2.07865 c 0.137975,-0.56666 0.06514,-0.84588 -0.291111,-1.11606 -0.444203,-0.33689 -0.434768,-0.36088 0.14496,-0.36875 0.393224,-0.005 0.670708,-0.20201 0.758463,-0.53758 0.07611,-0.29104 0.229669,-0.52917 0.341246,-0.52917 0.111578,0 0.265136,0.23813 0.341247,0.52917 0.08775,0.33557 0.365238,0.53224 0.758462,0.53758 0.579729,0.008 0.589164,0.0319 0.14496,0.36875 -0.356254,0.27018 -0.429085,0.5494 -0.29111,1.11606 l 0.184009,0.75573 -0.568782,-0.50403 c -0.55933,-0.49564 -0.578242,-0.49564 -1.137571,0 l -0.568783,0.50403 z m 42.625437,-1.20186 c -2.40012,-1.03823 -2.01806,-4.72575 0.53934,-5.20552 1.73296,-0.32511 3.59818,1.56192 3.18219,3.21938 -0.39227,1.56292 -2.3207,2.5921 -3.72153,1.98614 z m 20.37291,-4.09098 c 1.89177,-1.82836 3.65378,-3.39816 3.91556,-3.48844 0.59512,-0.20525 1.67578,0.47956 1.90715,1.20854 0.32991,1.03944 -0.50681,1.69729 -4.48965,3.52986 -2.13452,0.98213 -4.08158,1.85064 -4.3268,1.93002 -0.24521,0.0794 1.10197,-1.35161 2.99374,-3.17998 z m -98.895787,2.67527 c -1.085326,-0.27657 -2.474293,-1.49485 -2.859553,-2.50816 -1.331651,-3.5025 2.13079,-7.10915 5.522185,-5.75219 2.346251,0.93879 3.487679,3.39431 2.583611,5.55804 -0.952751,2.28026 -2.92196,3.29459 -5.246243,2.70231 z m 67.027377,-2.32847 c -0.008,-0.22556 0.0932,-0.52321 0.22398,-0.66146 0.13082,-0.13824 2.23231,-3.82323 4.66998,-8.18885 2.43767,-4.36563 5.68551,-10.1821 7.21743,-12.92551 1.85033,-3.31361 2.99159,-5.08199 3.39981,-5.26799 1.34386,-0.6123 2.64172,0.87021 1.9285,2.20287 -0.17517,0.32732 -3.96553,5.85039 -8.42302,12.27349 -4.45748,6.4231 -8.30663,11.97068 -8.55366,12.32796 -0.3108,0.44951 -0.45342,0.52328 -0.46302,0.23949 z m 25.824,-3.64562 c -0.60246,-0.66572 -0.55571,-2.04415 0.0913,-2.69115 1.18373,-1.18373 3.175,-0.29678 3.175,1.4142 0,0.52139 -0.19881,1.06495 -0.48386,1.32292 -0.65389,0.59177 -2.22883,0.56574 -2.78243,-0.046 z m -15.50122,-0.77859 c -0.0111,-0.37345 -0.26794,-0.71491 -0.6783,-0.90188 -0.64906,-0.29574 -0.65131,-0.30725 -0.1312,-0.67155 0.39985,-0.28007 0.48746,-0.54462 0.35849,-1.0825 l -0.17069,-0.71184 0.67086,0.61521 c 0.42853,0.39298 0.73437,0.51245 0.84668,0.33073 0.31167,-0.50431 0.716,-0.30523 0.53544,0.26365 -0.11112,0.35012 -0.007,0.73243 0.28776,1.05833 0.44627,0.49312 0.43513,0.51021 -0.33259,0.51021 -0.56229,0 -0.8782,0.1739 -1.08144,0.59531 l -0.2871,0.59531 -0.0179,-0.60098 z M 66.112533,458.85643 c -2.37018,-8.46329 -4.304945,-15.51818 -4.299479,-15.67753 0.01748,-0.50942 0.955019,-1.16548 1.66552,-1.16548 0.611058,0 1.51942,0.58462 1.51942,0.9779 0,0.0805 1.253416,7.05714 2.785367,15.50365 1.531951,8.44651 2.752341,15.44549 2.711979,15.55328 -0.04036,0.10779 -2.012624,-6.72852 -4.382807,-15.19182 z m 59.918867,13.77421 c 0.26522,-0.33198 2.49187,-3.07042 4.9481,-6.08541 4.18072,-5.13177 4.52188,-5.48181 5.34281,-5.48181 0.60626,0 1.00406,0.1815 1.28881,0.58804 0.61896,0.88368 0.50961,1.32862 -0.58031,2.36136 -1.26403,1.1977 -11.11923,9.22143 -11.32629,9.22143 -0.0854,0 0.0617,-0.27162 0.32688,-0.60361 z m 21.62955,-0.63202 c 0.32443,-0.84546 2.32363,-3.53787 2.82702,-3.80727 0.75967,-0.40657 2.04429,0.14995 2.25145,0.97535 0.22032,0.87785 -0.0734,1.85698 -0.62508,2.08389 -0.25592,0.10526 -1.39391,0.39816 -2.52888,0.6509 -1.6755,0.3731 -2.03742,0.39137 -1.92451,0.0971 z M 28.392831,467.51707 c -0.451098,-0.94596 -0.46664,-0.953 -1.702649,-0.7714 l -1.247397,0.18327 0.895782,-0.93186 0.895781,-0.93186 -0.575805,-0.97591 c -0.31669,-0.53676 -0.517694,-1.03402 -0.446675,-1.10504 0.07102,-0.071 0.560703,0.1376 1.088186,0.4636 l 0.959065,0.59274 0.92928,-0.89329 0.92928,-0.89328 -0.183269,1.2474 c -0.181599,1.23601 -0.174559,1.25155 0.771406,1.70265 1.202643,0.5735 1.216038,0.88641 0.03794,0.88641 -1.008772,0 -1.464516,0.52977 -1.464516,1.7024 0,0.95372 -0.35237,0.84407 -0.886413,-0.27583 z m 54.389606,-4.48534 c -0.766135,-0.53662 -1.380276,-1.74232 -1.380276,-2.7098 0,-1.91825 2.279875,-3.56372 4.10372,-2.9618 1.472895,0.4861 2.113989,1.42162 2.113989,3.08485 0,1.30966 -0.08663,1.533 -0.864071,2.22764 -0.69831,0.62394 -1.105758,0.77205 -2.12394,0.77205 -0.713447,0 -1.515568,-0.1791 -1.849422,-0.41294 z m 58.329433,-2.86945 c -0.0982,-0.25578 -0.17846,-0.74879 -0.17846,-1.09557 0,-0.70775 -0.67984,-1.17829 -1.7024,-1.17829 -0.95491,0 -0.84369,-0.35255 0.28031,-0.88855 0.93308,-0.44496 0.95547,-0.49006 0.82367,-1.65941 l -0.13549,-1.20202 0.86467,0.83808 0.86468,0.83807 1.12754,-0.57523 c 1.03867,-0.52989 1.11158,-0.53679 0.92495,-0.0876 -0.82164,1.97768 -0.82182,1.88395 0.005,2.75351 l 0.7832,0.82337 -1.19461,-0.17626 -1.19461,-0.17627 -0.54515,1.1256 c -0.43397,0.89603 -0.58156,1.03075 -0.72362,0.66054 z M 33.247994,450.71733 c -2.189308,-1.71591 -2.645834,-2.2221 -2.645834,-2.93365 0,-1.36446 2.286784,-2.0787 3.014763,-0.94162 0.397643,0.62111 1.858937,5.20827 1.704168,5.34956 -0.0488,0.0446 -0.981691,-0.61888 -2.073097,-1.47429 z m 22.574562,1.30612 c -1.794859,-0.88582 -1.061151,-3.66003 0.967986,-3.66003 0.757198,0 1.857452,1.15095 1.857452,1.94303 0,1.34778 -1.601549,2.32103 -2.825438,1.717 z m 17.845893,-2.59273 c -1.521693,-1.19696 -1.605513,-3.4191 -0.174398,-4.62331 1.05319,-0.8862 1.844389,-1.06311 3.019745,-0.67521 1.1776,0.38865 1.975599,1.59996 1.976959,3.0009 7.94e-4,0.80642 -0.186439,1.20608 -0.898594,1.91823 -0.75443,0.75444 -1.090208,0.89959 -2.080985,0.89959 -0.773983,0 -1.409467,-0.1794 -1.842727,-0.5202 z m 9.179142,-1.26574 c 0.568401,-1.46924 0.487005,-1.84455 -0.553371,-2.55151 l -1.014897,-0.68964 h 1.32946 1.32946 l 0.34685,-1.25677 c 0.378942,-1.37306 0.306517,-1.41625 1.109099,0.66146 0.188002,0.4867 0.436152,0.59661 1.360109,0.60243 l 1.130152,0.007 -0.913302,0.75726 c -0.887278,0.73568 -0.904486,0.78598 -0.603906,1.76536 0.170167,0.55446 0.260001,1.0575 0.199631,1.11787 -0.06037,0.0604 -0.429747,-0.14193 -0.820838,-0.44956 -0.881992,-0.69378 -1.185458,-0.69828 -2.034824,-0.0302 -0.828413,0.65163 -1.098118,0.67229 -0.863623,0.0661 z"
       id="path941" />
    <text
       xml:space="preserve"
       id="text839"
       style="font-style:normal;font-variant:normal;font-weight:normal;font-stretch:normal;font-size:89.9583px;line-height:1.25;font-family:Ubuntu;-inkscape-font-specification:Ubuntu;white-space:pre;shape-inside:url(#rect841);fill:#000000;fill-opacity:1;stroke:none;"
       transform="translate(-10.452338,-40.493837)"><tspan
         x="68.433594"
         y="590.52604"><tspan
           style="shape-inside:url(#rect841)">5</tspan></tspan></text>
  </g>
</svg>
